<?xml version="1.0" encoding="UTF-8"?>
<svg xmlns="http://www.w3.org/2000/svg" xmlns:xlink="http://www.w3.org/1999/xlink" width="24px" height="24px" viewBox="0 0 24 24" version="1.1">
<g id="surface1">
<path style="fill:none;stroke-width:1.68;stroke-linecap:round;stroke-linejoin:round;stroke:rgb(60.784314%,60.784314%,60.784314%);stroke-opacity:1;stroke-miterlimit:4;" d="M 3.999999 18.999993 L 3.999999 6.199216 C 3.999999 5.078123 3.999999 4.51953 4.218748 4.089842 C 4.410155 3.714842 4.718748 3.410155 5.093748 3.218749 C 5.519529 2.999999 6.082029 2.999999 7.203122 2.999999 L 16.796869 2.999999 C 17.917962 2.999999 18.480462 2.999999 18.906243 3.218749 C 19.281243 3.410155 19.589837 3.714842 19.781243 4.089842 C 19.999993 4.51953 19.999993 5.078123 19.999993 6.199216 L 19.999993 16.999994 L 5.999998 16.999994 C 4.894529 16.999994 3.999999 17.894525 3.999999 18.999993 Z M 3.999999 18.999993 C 3.999999 20.105461 4.894529 20.999992 5.999998 20.999992 L 19.999993 20.999992 M 8.999997 6.999997 L 14.999995 6.999997 M 8.999997 10.999996 L 14.999995 10.999996 M 18.999993 16.999994 L 18.999993 20.999992 " transform="matrix(1,0,0,1,0,0)"/>
</g>
</svg>
